{
  "accessors": [
    {
      "bufferView": 2,
      "componentType": 5126,
      "count": 65532,
      "max": [
        0.8535969853401184,
        1.7738349437713623,
        2.8302910327911377
      ],
      "min": [
        -0.9728490114212036,
        -1.7200889587402344,
        0.03247300162911415
      ],
      "type": "VEC3"
    },
    {
      "bufferView": 2,
      "byteOffset": 786384,
      "componentType": 5126,
      "count": 65532,
      "max": [
        0.9999004602432251,
        0.9999971389770508,
        0.9999997615814209
      ],
      "min": [
        -0.9999998807907104,
        -0.9999221563339233,
        -0.999997615814209
      ],
      "type": "VEC3"
    },
    {
      "bufferView": 3,
      "componentType": 5126,
      "count": 65532,
      "max": [
        0.9999056458473206,
        0.9999987483024597,
        0.9999975562095642,
        1.0
      ],
      "min": [
        -0.999784529209137,
        -0.9999987483024597,
        -0.9992480278015137,
        -1.0
      ],
      "type": "VEC4"
    },
    {
      "bufferView": 1,
      "componentType": 5126,
      "count": 65532,
      "max": [
        0.9998090267181396,
        0.9860429763793945
      ],
      "min": [
        7.79999973019585e-05,
        0.00021300000662449747
      ],
      "type": "VEC2"
    },
    {
      "bufferView": 0,
      "componentType": 5125,
      "count": 371043,
      "type": "SCALAR"
    },
    {
      "bufferView": 2,
      "byteOffset": 1572768,
      "componentType": 5126,
      "count": 56335,
      "max": [
        1.0141680240631104,
        1.5637739896774292,
        2.8426198959350586
      ],
      "min": [
        -1.0132529735565186,
        -3.550004005432129,
        0.01628899946808815
      ],
      "type": "VEC3"
    },
    {
      "bufferView": 2,
      "byteOffset": 2248788,
      "componentType": 5126,
      "count": 56335,
      "max": [
        0.9999964237213135,
        0.9998799562454224,
        0.9999954700469971
      ],
      "min": [
        -0.9999964237213135,
        -0.9999260902404785,
        -1.0
      ],
      "type": "VEC3"
    },
    {
      "bufferView": 3,
      "byteOffset": 1048512,
      "componentType": 5126,
      "count": 56335,
      "max": [
        0.999707818031311,
        0.9999918937683105,
        0.9999889135360718,
        1.0
      ],
      "min": [
        -0.9998999834060669,
        -0.9999960064888,
        -0.9998183250427246,
        -1.0
      ],
      "type": "VEC4"
    },
    {
      "bufferView": 1,
      "byteOffset": 524256,
      "componentType": 5126,
      "count": 56335,
      "max": [
        0.9959520101547241,
        0.9876940250396729
      ],
      "min": [
        2.8000000384054147e-05,
        0.0001140000022132881
      ],
      "type": "VEC2"
    },
    {
      "bufferView": 0,
      "byteOffset": 1484172,
      "componentType": 5125,
      "count": 307632,
      "type": "SCALAR"
    }
  ],
  "asset": {
    "extras": {
      "author": "Lassi Kaukonen (https://sketchfab.com/thesidekick)",
      "license": "CC-BY-4.0 (http://creativecommons.org/licenses/by/4.0/)",
      "source": "https://sketchfab.com/3d-models/puma-winter-shoe-9d9db48cae474063afc498809742943f",
      "title": "Puma Winter shoe"
    },
    "generator": "Sketchfab-14.26.0",
    "version": "2.0"
  },
  "bufferViews": [
    {
      "buffer": 0,
      "byteLength": 2714700,
      "name": "floatBufferViews",
      "target": 34963
    },
    {
      "buffer": 0,
      "byteLength": 974936,
      "byteOffset": 2714700,
      "byteStride": 8,
      "name": "floatBufferViews",
      "target": 34962
    },
    {
      "buffer": 0,
      "byteLength": 2924808,
      "byteOffset": 3689636,
      "byteStride": 12,
      "name": "floatBufferViews",
      "target": 34962
    },
    {
      "buffer": 0,
      "byteLength": 1949872,
      "byteOffset": 6614444,
      "byteStride": 16,
      "name": "floatBufferViews",
      "target": 34962
    }
  ],
  "buffers": [
    {
      "byteLength": 8564316,
      "uri": "scene.bin"
    }
  ],
  "extensionsRequired": [
    "KHR_materials_pbrSpecularGlossiness"
  ],
  "extensionsUsed": [
    "KHR_materials_pbrSpecularGlossiness"
  ],
  "images": [
    {
      "uri": "textures/Puma_wintershoe_diffuse.jpeg"
    },
    {
      "uri": "textures/Puma_wintershoe_specularGlossiness.png"
    },
    {
      "uri": "textures/Puma_wintershoe_normal.png"
    },
    {
      "uri": "textures/Puma_wintershoe_occlusion.png"
    }
  ],
  "materials": [
    {
      "doubleSided": true,
      "extensions": {
        "KHR_materials_pbrSpecularGlossiness": {
          "diffuseFactor": [
            1.0,
            1.0,
            1.0,
            1.0
          ],
          "diffuseTexture": {
            "index": 0
          },
          "glossinessFactor": 1.0,
          "specularFactor": [
            0.10819080591483707,
            0.10819080591483707,
            0.10819080591483707
          ],
          "specularGlossinessTexture": {
            "index": 1
          }
        }
      },
      "name": "Puma_wintershoe",
      "normalTexture": {
        "index": 2,
        "scale": 0.6445733929855786
      },
      "occlusionTexture": {
        "index": 3
      }
    }
  ],
  "meshes": [
    {
      "name": "Object_0",
      "primitives": [
        {
          "attributes": {
            "NORMAL": 1,
            "POSITION": 0,
            "TANGENT": 2,
            "TEXCOORD_0": 3
          },
          "indices": 4,
          "material": 0,
          "mode": 4
        }
      ]
    },
    {
      "name": "Object_1",
      "primitives": [
        {
          "attributes": {
            "NORMAL": 6,
            "POSITION": 5,
            "TANGENT": 7,
            "TEXCOORD_0": 8
          },
          "indices": 9,
          "material": 0,
          "mode": 4
        }
      ]
    }
  ],
  "nodes": [
    {
      "children": [
        1
      ],
      "matrix": [
        1.0,
        0.0,
        0.0,
        0.0,
        0.0,
        2.220446049250313e-16,
        -1.0,
        0.0,
        0.0,
        1.0,
        2.220446049250313e-16,
        0.0,
        0.0,
        0.0,
        0.0,
        1.0
      ],
      "name": "Sketchfab_model"
    },
    {
      "children": [
        2,
        3
      ],
      "name": "Puma_wintershoe_SF.obj.cleaner.materialmerger.gles"
    },
    {
      "mesh": 0,
      "name": "Object_2"
    },
    {
      "mesh": 1,
      "name": "Object_3"
    }
  ],
  "samplers": [
    {
      "magFilter": 9729,
      "minFilter": 9987,
      "wrapS": 10497,
      "wrapT": 10497
    }
  ],
  "scene": 0,
  "scenes": [
    {
      "name": "Sketchfab_Scene",
      "nodes": [
        0
      ]
    }
  ],
  "textures": [
    {
      "sampler": 0,
      "source": 0
    },
    {
      "sampler": 0,
      "source": 1
    },
    {
      "sampler": 0,
      "source": 2
    },
    {
      "sampler": 0,
      "source": 3
    }
  ]
}
